<svg width="154"
     height="30"
     viewBox="0 0 154 30"
     fill="none"
     xmlns="http://www.w3.org/2000/svg">
    <path fill-rule="evenodd"
          clip-rule="evenodd"
          d="M12.119 2.99951C12.119 2.4604 12.553 2.02164 13.094 2H16.904C17.447 2.02164 17.88 2.4604 17.88 2.99951C17.88 3.55239 17.425 4 16.863 4H13.135C12.575 4 12.119 3.55239 12.119 2.99951ZM8.032 6.51975C8.051 5.87336 8.619 5.37537 9.271 5.37537H20.779C21.449 5.37537 21.989 5.92316 21.969 6.59246C21.949 7.23885 21.381 7.73684 20.73 7.73684H17.887C17.492 7.73684 17.174 8.07547 17.213 8.47785C17.246 8.82943 17.563 9.08739 17.916 9.08739H26.683C27.292 9.08739 27.855 9.41208 28.156 9.93895C28.424 10.4061 28.667 10.8891 28.885 11.3861C29.176 12.0534 28.679 12.7994 27.949 12.7994H23.837C23.341 12.7994 22.945 13.2237 22.993 13.7267C23.036 14.1659 23.43 14.4876 23.872 14.4876H28.645C29.473 14.4876 30.1 15.2186 29.986 16.0343C29.865 16.9208 29.663 17.7823 29.393 18.6129C29.21 19.1707 28.689 19.5492 28.101 19.5492H16.016C15.445 19.5492 14.983 20.0203 15 20.5939C15.016 21.1477 15.503 21.575 16.06 21.575H26.807C27.354 21.575 27.68 22.1895 27.365 22.6327C24.627 26.4842 20.11 29 15 29C9.891 29 5.373 26.4842 2.635 22.6327C2.318 22.1895 2.647 21.575 3.192 21.575H5.655C6.227 21.575 6.688 21.1049 6.671 20.5312C6.655 19.9774 6.169 19.5492 5.612 19.5492H1.9C1.31 19.5492 0.79 19.1707 0.607 18.6129C0.336 17.7823 0.136 16.9208 0.013 16.0343C0.005 15.9835 0.001 15.9318 0 15.881V15.8083C0.019 15.0872 0.604 14.4876 1.355 14.4876H15.343C15.838 14.4876 16.234 14.0633 16.186 13.5603C16.143 13.1211 15.748 12.7994 15.305 12.7994H2.05C1.319 12.7994 0.824 12.0534 1.115 11.3861C1.332 10.8891 1.575 10.4061 1.844 9.93895C2.146 9.41208 2.708 9.08739 3.317 9.08739H12.112C12.509 9.08739 12.825 8.74776 12.787 8.34638C12.753 7.9948 12.438 7.73684 12.083 7.73684H9.221C8.552 7.73684 8.012 7.18806 8.032 6.51975Z"
          fill="url(#paint0_linear_5752_6277)" />
    <path fill-rule="evenodd"
          clip-rule="evenodd"
          d="M145.352 23C149.901 23 153.588 19.4183 153.588 15C153.588 10.5817 149.901 7 145.352 7C140.804 7 137.117 10.5817 137.117 15C137.117 19.4183 140.804 23 145.352 23ZM145.352 21.4C148.991 21.4 151.941 18.5346 151.941 15C151.941 11.4654 148.991 8.6 145.352 8.6C141.714 8.6 138.764 11.4654 138.764 15C138.764 18.5346 141.714 21.4 145.352 21.4Z"
          fill="white" />
    <path d="M133.824 7.4C133.824 7.17909 134.009 7 134.236 7H135.06C135.287 7 135.471 7.17909 135.471 7.4V22.6C135.471 22.8209 135.287 23 135.06 23H134.236C134.009 23 133.824 22.8209 133.824 22.6V7.4Z"
          fill="white" />
    <path d="M130.529 21.8004C130.529 21.5795 130.714 21.4004 130.941 21.4004H131.765C131.992 21.4004 132.176 21.5795 132.176 21.8004V22.6004C132.176 22.8213 131.992 23.0004 131.765 23.0004H130.941C130.714 23.0004 130.529 22.8213 130.529 22.6004V21.8004Z"
          fill="white" />
    <path d="M115.706 15V22.6C115.706 22.8209 115.522 23 115.294 23H112.824C112.596 23 112.412 22.8209 112.412 22.6V7.4C112.412 7.17909 112.596 7 112.824 7H114.272C114.646 7 114.988 7.20544 115.156 7.53067L115.618 8.42797C115.664 8.5173 115.782 8.54425 115.865 8.48619C117.213 7.55054 118.864 7 120.647 7C125.196 7 128.883 10.5817 128.883 15V22.6C128.883 22.8209 128.698 23 128.471 23H126C125.773 23 125.589 22.8209 125.589 22.6V15C125.589 12.349 123.376 10.2 120.647 10.2C118.16 10.2 116.102 11.9855 115.757 14.3092L115.706 15Z"
          fill="white" />
    <path fill-rule="evenodd"
          clip-rule="evenodd"
          d="M102.118 7C97.5699 7 93.8828 10.5817 93.8828 15C93.8828 19.4183 97.5699 23 102.118 23C103.901 23 105.552 22.4495 106.9 21.5138C106.984 21.4558 107.102 21.4827 107.148 21.572L107.61 22.4693C107.777 22.7946 108.119 23 108.494 23H109.942C110.169 23 110.353 22.8209 110.353 22.6V15C110.353 10.5817 106.666 7 102.118 7ZM97.1769 15C97.1769 12.349 99.3892 10.2 102.118 10.2C104.847 10.2 107.059 12.349 107.059 15C107.059 17.651 104.847 19.8 102.118 19.8C99.3892 19.8 97.1769 17.651 97.1769 15Z"
          fill="white" />
    <path fill-rule="evenodd"
          clip-rule="evenodd"
          d="M90.7613 19.5698C90.8997 19.3769 90.8222 19.1132 90.6057 19.008L88.3587 17.9166C88.1766 17.8282 87.9567 17.8835 87.8278 18.0366C86.9217 19.113 85.5439 19.8 84.0009 19.8C81.8041 19.8 79.9421 18.4073 79.2995 16.4813C79.266 16.3807 79.3449 16.28 79.4537 16.28H91.4127C91.8675 16.28 92.2362 15.9218 92.2362 15.48V15C92.2362 10.5817 88.5491 7 84.0009 7C79.4527 7 75.7656 10.5817 75.7656 15C75.7656 19.4183 79.4527 23 84.0009 23C86.8002 23 89.2732 21.6433 90.7613 19.5698ZM88.5915 13.72C88.697 13.72 88.7754 13.6249 88.7487 13.5258C88.2034 11.5007 86.5272 9.88001 84.0009 9.88001C81.4746 9.88001 79.7985 11.5007 79.2532 13.5258C79.2265 13.6249 79.3049 13.72 79.4104 13.72H88.5915Z"
          fill="white" />
    <path d="M74.3233 19.8602C74.5206 19.9943 74.5584 20.2642 74.3947 20.4358C72.8905 22.0129 70.7402 23 68.3525 23C63.8043 23 60.1172 19.4183 60.1172 15C60.1172 10.5817 63.8043 7 68.3525 7C70.7402 7 72.8905 7.98711 74.3947 9.56417C74.5584 9.73576 74.5206 10.0057 74.3233 10.1398L72.2696 11.5363C72.1011 11.6509 71.8727 11.6257 71.7223 11.4895C70.8396 10.6895 69.6549 10.2 68.3525 10.2C65.6235 10.2 63.4113 12.349 63.4113 15C63.4113 17.651 65.6235 19.8 68.3525 19.8C69.6549 19.8 70.8396 19.3105 71.7223 18.5105C71.8727 18.3743 72.1011 18.3491 72.2696 18.4637L74.3233 19.8602Z"
          fill="white" />
    <path fill-rule="evenodd"
          clip-rule="evenodd"
          d="M50.2353 23C54.7835 23 58.4706 19.4183 58.4706 15C58.4706 10.5817 54.7835 7 50.2353 7C45.6871 7 42 10.5817 42 15C42 19.4183 45.6871 23 50.2353 23ZM50.2353 19.8C52.9642 19.8 55.1765 17.651 55.1765 15C55.1765 12.349 52.9642 10.2 50.2353 10.2C47.5064 10.2 45.2941 12.349 45.2941 15C45.2941 17.651 47.5064 19.8 50.2353 19.8Z"
          fill="white" />
    <defs>
        <linearGradient id="paint0_linear_5752_6277"
                        x1="21.1065"
                        y1="-9.39062"
                        x2="40.6994"
                        y2="22.385"
                        gradientUnits="userSpaceOnUse">
            <stop stop-color="#96CFFA" />
            <stop offset="1"
                  stop-color="#5177E6" />
        </linearGradient>
    </defs>
</svg>